<svg width="20" height="20" viewBox="0 0 20 20" fill="none" xmlns="http://www.w3.org/2000/svg">
<path d="M10.8333 14.115V15.8333H15V17.5H5.00001V15.8333H9.16668V14.115C7.55559 13.9118 6.07403 13.1277 5.00001 11.9098C3.926 10.6919 3.33337 9.12384 3.33334 7.5V2.5H16.6667V7.5C16.6666 9.12384 16.074 10.6919 15 11.9098C13.926 13.1277 12.4444 13.9118 10.8333 14.115ZM5.00001 4.16667V7.5C5.00001 8.82608 5.52679 10.0979 6.46448 11.0355C7.40216 11.9732 8.67393 12.5 10 12.5C11.3261 12.5 12.5979 11.9732 13.5355 11.0355C14.4732 10.0979 15 8.82608 15 7.5V4.16667H5.00001ZM0.833344 4.16667H2.50001V7.5H0.833344V4.16667ZM17.5 4.16667H19.1667V7.5H17.5V4.16667Z" fill="#EF9120"/>
</svg>
