<svg width="14" height="15" viewBox="0 0 14 15" fill="none" xmlns="http://www.w3.org/2000/svg">
<path d="M7.58361 5.06239V9.72906C7.58361 10.1932 7.39923 10.6383 7.07104 10.9665C6.74286 11.2947 6.29774 11.4791 5.83361 11.4791H4.56777C4.43016 11.8684 4.15933 12.1966 3.80314 12.4056C3.44695 12.6146 3.02834 12.6909 2.62131 12.6211C2.21428 12.5513 1.84504 12.3398 1.57885 12.0241C1.31266 11.7084 1.16666 11.3087 1.16666 10.8957C1.16666 10.4828 1.31266 10.0831 1.57885 9.76734C1.84504 9.45161 2.21428 9.24015 2.62131 9.17034C3.02834 9.10053 3.44695 9.17686 3.80314 9.38585C4.15933 9.59484 4.43016 9.92302 4.56777 10.3124H5.83361C5.98832 10.3124 6.13669 10.2509 6.24609 10.1415C6.35548 10.0321 6.41694 9.88377 6.41694 9.72906V5.06239C6.41694 4.59826 6.60132 4.15314 6.9295 3.82496C7.25769 3.49677 7.70281 3.31239 8.16694 3.31239H9.91694V1.56239L12.8336 3.89573L9.91694 6.22906V4.47906H8.16694C8.01223 4.47906 7.86386 4.54052 7.75446 4.64991C7.64507 4.75931 7.58361 4.90768 7.58361 5.06239ZM2.91694 11.4791C3.07165 11.4791 3.22002 11.4176 3.32942 11.3082C3.43882 11.1988 3.50027 11.0504 3.50027 10.8957C3.50027 10.741 3.43882 10.5926 3.32942 10.4832C3.22002 10.3739 3.07165 10.3124 2.91694 10.3124C2.76223 10.3124 2.61386 10.3739 2.50446 10.4832C2.39507 10.5926 2.33361 10.741 2.33361 10.8957C2.33361 11.0504 2.39507 11.1988 2.50446 11.3082C2.61386 11.4176 2.76223 11.4791 2.91694 11.4791Z" fill="#363636"/>
</svg>
