<svg width="141" height="106" viewBox="0 0 141 106" fill="none" xmlns="http://www.w3.org/2000/svg">
<g clip-path="url(#clip0_7_3796)">
<path d="M85.5886 10.3663C82.9838 11.096 81.3263 13.0567 78.8833 18.4319C73.2331 30.8255 73.4377 34.3689 80.1837 39.965C81.4787 41.0245 82.9737 41.7383 86.6578 43.0702C89.3032 44.05 92.1455 45.3033 92.9602 45.8278C94.9348 47.2004 97.6333 52.2925 97.5847 54.5093C97.4574 57.568 98.4118 57.4367 70.2101 57.303C45.6995 57.1389 32.6974 56.5761 33.037 55.5746C33.4011 54.6228 35.9746 52.7659 37.7237 52.2424C39.3735 51.7679 41.0697 51.8881 50.4146 53.1132C62.334 54.6736 64.7482 54.8719 67.9703 54.517C70.8083 54.1973 72.3897 52.5829 72.0422 50.3145C71.8009 49.0747 70.802 48.2397 63.5083 43.1609C52.6728 35.599 53.1895 36.2705 53.9219 31.1838C54.7196 25.4161 53.8113 23.8261 48.472 21.6433C44.9124 20.1881 44.6163 19.9636 35.5148 12.4107C30.3969 8.11113 25.8329 4.49563 25.3507 4.33212C24.0154 3.87931 22.5115 4.89954 21.9077 6.67996C21.3166 8.42329 20.4452 14.0419 17.6172 33.9683C16.4985 41.9018 15.3044 50.0578 15.0213 52.1124C14.1883 57.4959 14.3635 59.5404 16.0518 63.5869C16.8343 65.5479 17.5056 67.4712 17.5037 67.8428C17.4892 68.2514 16.5038 69.5716 15.2463 70.8408C12.4697 73.6628 11.7918 75.418 12.7994 76.9591C13.2049 77.5929 13.8706 78.1908 14.2786 78.3292C14.6866 78.4675 23.2319 78.6357 33.227 78.675C43.2592 78.727 51.8542 78.8706 52.386 79.0096C52.9179 79.1486 53.561 79.3253 53.8333 79.3763C54.2168 79.465 54.4042 79.1563 54.4828 78.3145C54.5873 77.2746 54.7615 77.1269 55.7278 77.0823C56.6073 77.0497 56.8312 76.8775 56.8476 76.0973C56.9031 74.9581 56.9647 75.0203 55.9122 74.953C55.2313 74.8875 54.9823 75.1339 54.7547 76.0493L54.4515 77.1872L34.7587 77.0852C18.0755 77.0112 14.9427 76.8587 14.3882 76.2985C13.5754 75.4025 14.2507 74.1427 16.8526 71.5923C17.8485 70.6066 18.8332 69.4103 18.9841 68.9652C19.3112 68.0008 18.7047 65.5205 17.2603 62.2184C15.6204 58.3951 15.4744 60.2893 19.3298 33.3084C23.1085 6.79766 23.401 5.32526 24.8476 5.8158C25.1073 5.90385 29.4487 9.44389 34.4679 13.6686C43.4827 21.2335 43.643 21.3706 47.4867 22.9635C49.8845 23.942 51.4901 24.8173 51.7849 25.2895C52.5097 26.4451 52.6949 28.948 52.2495 31.237C51.6142 34.3302 52.1239 36.3641 53.9721 38.2315C54.7975 39.0904 55.7348 39.8632 55.9944 39.9512C57.0701 40.316 70.0141 49.7095 70.3328 50.3552C70.5163 50.7897 70.4389 51.3838 70.1516 51.8653C69.053 53.5193 64.2108 53.4076 49.3585 51.3489C40.5091 50.1264 38.4532 50.091 35.9213 51.0935C34.3451 51.717 31.3711 54.3894 30.9812 55.5392C30.8554 55.9101 31.0628 56.5181 31.4695 56.9042C32.7513 58.1246 44.4772 58.7922 66.4239 58.9555C98.4524 59.1461 97.3126 59.2145 98.5627 56.9916C99.6751 55.0528 99.2918 52.5241 97.4029 48.9472C95.2563 44.9107 94.2939 44.2121 87.2357 41.4879C82.7118 39.7057 81.5135 39.0925 80.2191 37.9092C75.3258 33.3135 75.2809 30.031 80.0531 19.7384C82.5333 14.3759 84.0047 12.4761 85.977 11.9042C87.2174 11.539 88.8746 12.0183 89.7736 13.0262C90.8209 14.0844 103.886 33.4862 119.125 56.6026C122.05 61.0271 125.393 66.0483 126.561 67.7264C128.7 70.8091 129.383 72.943 128.608 74.128C127.934 75.1402 124.298 76.4714 121.274 76.8521C117.42 77.3647 96.201 77.7379 84.5223 77.5411C79.0979 77.4387 70.7009 77.3209 65.8706 77.2959L57.077 77.2503L56.9473 78.3644C56.868 79.3301 56.6813 79.5149 55.8017 79.5475C54.9963 79.6053 54.7599 79.8146 54.6197 80.5942C54.3875 82.3765 56.3572 82.3 56.7629 80.4938C56.9906 79.5784 57.1773 79.3936 57.9072 79.5584C58.3775 79.6351 58.8365 79.5013 58.9245 79.2416C59.0126 78.982 63.0633 78.8667 69.0699 78.9598C90.6318 79.282 97.1961 79.316 108.63 79.016C121.302 78.7225 123.619 78.4744 126.847 77.1287C129.503 76.0029 130.549 74.8689 130.547 72.9243C130.571 70.6578 130.387 70.3472 113.204 44.7931C109.799 39.7097 105.363 33.0356 103.347 29.9535C97.7195 21.3038 92.0275 13.0874 90.9682 11.9424C89.5884 10.5233 87.3993 9.90503 85.5886 10.3663Z" fill="white"/>
<path d="M52.3924 69.2189C52.4501 69.9367 52.6753 70.1323 53.5064 70.2343C54.2136 70.3377 54.5091 70.1857 54.5168 69.7768C54.5006 69.4426 54.5203 68.9964 54.5801 68.81C54.7117 68.3997 53.6048 68.0036 52.8765 68.2225C52.5676 68.2879 52.3987 68.6862 52.3924 69.2189Z" fill="white"/>
<path d="M52.3744 74.1489C52.4279 74.4951 52.8382 74.6267 53.4947 74.6316C54.287 74.5978 54.4826 74.3726 54.5354 73.5669C54.6001 72.7238 54.7837 72.5359 55.6999 72.5007C56.5908 72.4162 56.8117 72.2403 56.8645 71.4346C56.9292 70.5916 57.1128 70.4037 57.9917 70.3565C59.081 70.2945 59.2886 70.032 59.2146 68.98C59.2104 68.6085 58.836 68.365 58.2034 68.2855C57.3351 68.1716 57.2126 68.2969 57.1001 69.289C57.0248 70.2932 56.8531 70.4438 55.8877 70.5044C55.0461 70.5635 54.7639 70.8021 54.5874 71.6092C54.3988 72.4536 54.2032 72.6788 53.4707 72.5262C52.6143 72.3749 52.0781 73.149 52.3744 74.1489Z" fill="white"/>
<path d="M56.9659 73.8116C56.9371 74.5427 57.7724 75.0163 58.6738 74.7706C59.4767 74.5757 59.269 72.6582 58.4274 72.7173C58.0559 72.7216 57.6097 72.7019 57.4232 72.6421C57.0876 72.5344 57.0024 72.6716 56.9659 73.8116Z" fill="white"/>
<path d="M57.0526 81.9568C56.8784 82.1045 56.7891 82.6119 56.8236 83.1199C56.8324 83.8259 57.0417 84.0623 57.6735 84.0284C58.5034 84.0204 58.5657 83.9587 58.9179 82.9202C59.1065 82.3638 57.5254 81.5381 57.0526 81.9568Z" fill="white"/>
<path d="M53.0277 81.874C52.0488 81.9557 52.0882 83.9128 53.0545 83.8683C53.4261 83.8702 53.8347 83.8847 53.9831 83.935C54.1685 83.9979 54.344 83.6025 54.4088 83.0455C54.5749 82.0678 54.2543 81.7937 53.0277 81.874Z" fill="white"/>
<path d="M55.2197 84.313C54.1905 84.543 54.2702 85.8935 55.3465 86.1344C56.497 86.4004 56.497 86.4004 56.577 85.3109C56.6437 84.3823 56.2118 84.0704 55.2197 84.313Z" fill="white"/>
<path d="M57.2759 86.6645C56.5938 86.8468 56.4119 88.4808 57.0796 88.7072C58.0069 89.0216 58.7526 88.5301 58.7571 87.6631C58.7741 86.759 58.3051 86.4345 57.2759 86.6645Z" fill="white"/>
<path d="M53.0662 86.395C52.4966 86.3673 52.2973 86.5892 52.257 87.1959C52.2173 87.6788 52.1651 88.1987 52.1273 88.31C52.0896 88.4212 52.485 88.5967 53.0421 88.6615C53.5865 88.7634 54.0574 88.7163 54.1077 88.5679C54.2845 87.9248 54.267 86.5127 54.0319 86.4744C53.908 86.4737 53.4748 86.4095 53.0662 86.395Z" fill="white"/>
<path d="M36.2245 6.90272C35.055 7.91229 34.1339 8.7993 34.1458 8.88606C34.2074 8.94831 36.2801 10.5196 38.7601 12.3532L43.2512 15.6958L42.4071 13.6726C40.6082 9.4645 38.649 5.11934 38.5377 5.08161C38.4635 5.05645 37.4437 5.86863 36.2245 6.90272Z" fill="#EC1515"/>
<path d="M115.071 35.7488L112.389 37.0725L114.543 39.7466C115.737 41.2267 117.275 43.1545 118.014 44.0253C118.703 44.9206 119.368 45.6425 119.43 45.5808C119.529 45.5318 117.949 34.9462 117.753 34.5488C117.728 34.4992 116.512 35.0378 115.071 35.7488Z" fill="#EC1515"/>
<path d="M43.3167 81.9724L37.8594 83.4304L41.817 84.5656C47.5185 86.1681 49.1148 86.4613 49.1054 85.8791C49.1192 85.5943 49.1011 84.3061 49.1327 82.9933C49.1517 81.7177 49.1078 80.6275 48.9965 80.5898C48.8853 80.5521 46.3182 81.1704 43.3167 81.9724Z" fill="#EC1515"/>
</g>
<defs>
<clipPath id="clip0_7_3796">
<rect width="141" height="105.75" fill="white"/>
</clipPath>
</defs>
</svg>
